<svg width="38" height="32" viewBox="0 0 38 32" fill="none" xmlns="http://www.w3.org/2000/svg">
<g filter="url(#filter0_d_6584_1363)">
<path d="M7.77552 23.1114L7.01738 22.3611L7.77161 21.599L8.52976 22.3572L7.77552 23.1114ZM11.02 26.3558L12.0612 26.5872L11.6397 28.4841L10.2657 27.1101L11.02 26.3558ZM13.1532 16.7559L12.112 16.5245L12.4578 14.9685L13.7643 15.8816L13.1532 16.7559ZM20.9754 22.2225L21.8325 22.8575L21.2149 23.6912L20.3644 23.0968L20.9754 22.2225ZM34.8779 3.45821L33.4762 15.6949L23.5797 8.36267L34.8779 3.45821ZM2.75071 26.6722L7.01738 22.3611L8.53366 23.8618L4.26698 28.1728L2.75071 26.6722ZM8.52976 22.3572L11.7742 25.6016L10.2657 27.1101L7.02128 23.8657L8.52976 22.3572ZM9.97869 26.1245L12.112 16.5245L14.1945 16.9873L12.0612 26.5872L9.97869 26.1245ZM13.7643 15.8816L21.5865 21.3482L20.3644 23.0968L12.5422 17.6302L13.7643 15.8816ZM20.1184 21.5875L28.3059 10.5368L30.02 11.8067L21.8325 22.8575L20.1184 21.5875Z" fill="url(#paint0_linear_6584_1363)"/>
</g>
<defs>
<filter id="filter0_d_6584_1363" x="0.617165" y="1.32493" width="36.7496" height="29.6481" filterUnits="userSpaceOnUse" color-interpolation-filters="sRGB">
<feFlood flood-opacity="0" result="BackgroundImageFix"/>
<feColorMatrix in="SourceAlpha" type="matrix" values="0 0 0 0 0 0 0 0 0 0 0 0 0 0 0 0 0 0 127 0" result="hardAlpha"/>
<feOffset dx="0.177777" dy="0.177777"/>
<feGaussianBlur stdDeviation="1.15555"/>
<feComposite in2="hardAlpha" operator="out"/>
<feColorMatrix type="matrix" values="0 0 0 0 0.14375 0 0 0 0 0.8625 0 0 0 0 0.212963 0 0 0 1 0"/>
<feBlend mode="normal" in2="BackgroundImageFix" result="effect1_dropShadow_6584_1363"/>
<feBlend mode="normal" in="SourceGraphic" in2="effect1_dropShadow_6584_1363" result="shape"/>
</filter>
<linearGradient id="paint0_linear_6584_1363" x1="5.63258" y1="29.7814" x2="34.8745" y2="3.4545" gradientUnits="userSpaceOnUse">
<stop stop-color="#8FFE9E" stop-opacity="0.1"/>
<stop offset="0.135" stop-color="#80FE91" stop-opacity="0.5"/>
<stop offset="1" stop-color="#00FF23"/>
</linearGradient>
</defs>
</svg>
